<svg xmlns="http://www.w3.org/2000/svg" viewBox="0 0 677.57 72.22"><defs><style>.cls-1{fill:#fff;}</style></defs><title>资源 1</title><g id="图层_2" data-name="图层 2"><g id="图层_1-2" data-name="图层 1"><polygon class="cls-1" points="583.75 54.17 578.54 45.14 578.53 45.14 578.53 45.13 573.33 36.11 568.12 27.08 568.11 27.08 562.89 36.11 568.11 45.14 562.9 54.17 557.69 63.19 552.47 72.22 562.89 72.22 568.11 63.19 573.33 54.17 578.53 63.19 583.75 72.22 594.18 72.22 588.97 63.19 583.75 54.17"/><polygon class="cls-1" points="573.33 18.05 578.54 9.03 568.12 9.03 573.32 18.05 573.33 18.05"/><polygon class="cls-1" points="416.97 18.05 422.18 9.03 411.76 9.03 416.96 18.05 416.97 18.05"/><polygon class="cls-1" points="302.3 54.17 307.51 45.14 297.09 45.14 302.3 54.17"/><polygon class="cls-1" points="166.79 54.17 172 45.14 161.57 45.14 166.79 54.17"/><polygon class="cls-1" points="41.7 54.17 46.91 45.14 36.49 45.14 41.7 54.17"/><polygon class="cls-1" points="489.94 54.17 495.14 63.19 495.15 63.19 500.36 54.17 489.94 54.17"/><polygon class="cls-1" points="125.09 0 114.67 0 114.66 0 109.45 9.03 119.88 9.03 125.09 0"/><polygon class="cls-1" points="396.12 0 385.7 0 390.9 9.03 401.33 9.03 396.12 0"/><polygon class="cls-1" points="641.09 9.03 646.29 18.05 651.51 27.08 656.73 18.07 656.72 18.05 651.51 9.03 661.93 9.03 672.36 9.03 667.15 0 656.73 0 656.72 0 646.29 0 635.88 0 635.87 0 625.45 0 630.67 9.03 641.09 9.03"/><polygon class="cls-1" points="552.48 18.07 557.7 27.08 562.91 18.05 557.7 9.03 552.49 0 552.48 0 542.06 0 531.63 0 521.21 0 521.2 0 516 9.03 510.79 18.05 505.57 27.08 510.78 36.11 516 45.14 521.2 54.17 516 63.19 505.57 63.19 500.36 72.22 510.78 72.22 521.21 72.22 526.42 63.19 526.43 63.19 531.63 54.17 526.43 45.14 526.42 45.14 526.42 45.13 521.21 36.11 516.01 27.08 516 27.08 516 27.07 521.2 18.05 521.21 18.05 526.42 9.03 536.85 9.03 547.27 9.03 552.48 18.05 552.48 18.07"/><polygon class="cls-1" points="364.85 36.11 354.42 36.11 349.21 45.14 359.63 45.14 359.63 45.13 359.64 45.14 370.06 45.14 380.48 45.14 380.48 45.13 385.69 36.11 375.28 36.11 364.85 36.11"/><polygon class="cls-1" points="333.57 54.18 333.57 54.17 328.36 45.14 328.35 45.14 323.15 36.12 323.15 36.11 317.93 27.08 312.73 18.07 312.73 18.05 307.51 9.03 302.3 0 297.09 9.03 291.88 18.05 286.67 27.08 281.46 36.11 281.45 36.11 276.24 45.14 276.23 45.14 271.03 54.17 265.82 63.19 265.81 63.19 255.4 63.19 260.61 54.17 265.82 45.14 271.03 36.12 271.03 36.11 265.81 27.08 260.61 18.07 260.61 18.05 260.6 18.05 255.39 9.03 250.19 0 250.18 0 239.75 0 229.34 0 229.33 0 218.91 0 208.49 0 198.06 0 203.27 9.03 208.48 18.05 208.49 18.05 218.91 18.05 213.7 9.03 224.12 9.03 224.13 9.03 234.54 9.03 234.55 9.03 244.97 9.03 250.18 18.05 250.19 18.05 255.39 27.08 255.4 27.08 260.61 36.11 255.39 45.13 255.39 45.14 250.19 54.17 250.18 54.17 244.97 63.19 234.55 63.19 224.13 63.19 224.12 63.19 213.69 63.19 218.91 54.17 224.12 45.14 224.13 45.14 229.33 36.11 224.13 27.08 224.12 27.08 213.69 27.08 218.9 36.11 213.69 45.13 213.69 45.14 208.48 54.17 203.27 63.19 198.06 54.17 192.85 45.14 187.63 36.11 182.43 27.08 177.21 18.05 172 9.03 166.79 0 161.58 9.03 156.37 18.05 156.37 18.07 151.15 27.08 145.95 36.11 145.94 36.12 140.73 45.14 135.52 54.17 135.51 54.17 135.51 54.18 130.31 63.19 130.3 63.19 119.89 63.19 119.88 63.19 125.09 54.17 130.3 45.14 125.09 36.12 125.09 36.11 125.08 36.11 119.88 27.08 109.45 27.08 99.03 27.08 99.02 27.08 88.61 27.08 88.6 27.08 83.39 18.07 83.39 18.05 88.61 9.03 99.03 9.03 104.24 0 93.83 0 93.82 0 83.39 0 78.18 9.03 72.97 18.05 78.19 27.08 83.39 36.11 93.82 36.11 104.25 36.11 114.66 36.11 114.67 36.11 119.88 45.14 114.67 54.17 109.45 63.19 99.03 63.19 88.61 63.19 88.6 63.19 78.18 63.19 72.97 54.17 67.76 45.14 62.55 36.11 62.54 36.11 57.34 27.08 52.12 18.05 46.91 9.03 41.7 0 36.48 9.03 31.27 18.05 31.27 18.05 26.06 27.07 26.06 27.08 20.84 36.11 15.64 45.13 15.64 45.14 10.42 54.17 5.22 63.19 5.21 63.19 0 72.21 0 72.22 0.01 72.22 10.42 72.22 15.64 63.19 20.85 54.17 26.06 45.14 31.27 36.11 36.48 27.08 36.49 27.08 41.7 18.07 46.9 27.08 52.12 36.11 52.12 36.12 57.33 45.14 52.12 54.17 62.54 54.17 62.55 54.17 62.54 54.18 67.76 63.19 72.96 72.22 83.39 72.22 93.82 72.22 104.25 72.22 114.66 72.22 114.67 72.22 125.09 72.22 135.51 72.22 140.72 63.19 140.73 63.19 145.94 54.17 156.36 54.17 151.15 45.14 156.37 36.11 161.57 27.08 166.79 18.05 172 27.07 172.01 27.08 177.21 36.11 182.43 45.13 182.43 45.14 182.42 45.14 177.21 54.17 187.64 54.17 192.85 63.19 198.06 72.21 198.06 72.22 208.49 72.22 218.91 72.22 229.33 72.22 239.75 72.22 250.19 72.22 260.61 72.22 271.03 72.22 271.03 72.21 276.23 63.19 276.24 63.19 281.45 54.17 291.88 54.17 286.67 45.14 286.67 45.13 291.87 36.11 297.09 27.08 297.09 27.07 302.29 18.05 302.3 18.05 307.51 27.08 307.52 27.08 312.73 36.11 317.94 45.14 323.15 54.17 328.36 63.19 333.57 72.22 333.58 72.22 343.99 72.22 338.79 63.19 333.57 54.18"/><polygon class="cls-1" points="474.3 63.19 469.09 54.17 474.3 45.14 479.51 36.11 484.72 27.08 479.51 18.07 479.51 18.05 479.5 18.05 474.3 9.03 469.09 0 469.08 0 458.66 0 448.24 0 437.82 0 432.61 9.03 427.4 18.05 427.4 18.07 422.18 27.08 416.97 36.11 416.96 36.12 416.96 36.11 411.76 27.08 411.75 27.08 406.54 18.07 406.54 18.05 396.12 18.05 401.34 27.08 406.54 36.11 411.76 45.14 406.55 54.17 406.54 54.17 406.54 54.18 401.34 63.19 396.12 72.22 406.54 72.22 411.76 63.19 416.96 54.17 422.18 45.14 427.4 36.11 432.6 27.08 437.82 18.05 443.02 9.03 453.45 9.03 463.88 9.03 469.08 18.05 469.09 18.05 474.3 27.08 469.09 36.11 469.08 36.12 463.88 45.14 458.67 54.17 463.88 63.19 469.08 72.21 469.09 72.22 479.51 72.22 489.94 72.22 484.72 63.19 474.3 63.19"/><polygon class="cls-1" points="672.36 63.19 661.94 63.19 661.93 63.19 651.51 63.19 656.73 54.17 651.51 45.14 651.51 45.13 646.3 36.11 641.09 27.08 641.08 27.08 635.87 36.11 641.09 45.14 646.29 54.17 641.09 63.19 630.67 63.19 630.66 63.19 620.24 63.19 609.81 63.19 604.6 54.18 604.6 54.17 599.39 45.14 599.38 45.14 594.18 36.12 594.18 36.11 588.96 27.08 594.18 18.05 599.39 9.03 604.6 0 594.18 0 588.97 9.03 583.75 18.05 583.75 18.07 578.55 27.08 583.75 36.11 588.97 45.14 594.18 54.17 599.39 63.19 604.6 72.22 604.61 72.22 615.02 72.22 625.45 72.22 635.87 72.22 646.3 72.22 656.72 72.22 656.73 72.22 667.15 72.22 677.57 72.22 672.37 63.19 672.36 63.19"/><polygon class="cls-1" points="443.94 10.96 443.94 10.96 443.94 10.96 443.94 10.96"/><polygon class="cls-1" points="463.87 13.04 463.88 13.04 462.73 11.03 462.71 11.03 462.7 11.01 460.39 11.02 460.4 11.03 446.46 11.03 444.14 11.03 444.11 11.09 444.1 11.09 442.94 13.1 408.85 72.22 411.17 72.22 445.26 13.09 445.29 13.04 445.3 13.04 461.55 13.04 469.66 27.08 455.19 52.17 454.04 54.18 455.2 56.18 464.45 72.22 466.77 72.22 456.35 54.18 470.82 29.09 471.98 27.08 470.82 25.07 463.87 13.04"/><polygon class="cls-1" points="547.23 13.01 546.09 11.03 543.77 11.03 529.89 11.03 527.58 11.03 526.42 13.04 526.43 13.04 526.39 13.1 519.48 25.08 518.32 27.08 519.48 29.09 533.97 54.18 523.55 72.22 525.87 72.22 535.13 56.19 536.28 54.18 535.13 52.17 520.64 27.08 528.72 13.09 528.75 13.04 544.93 13.04 544.94 13.04 555.37 31.11 556.53 29.1 547.24 13.01 547.23 13.01"/><polygon class="cls-1" points="634.71 38.12 633.56 40.13 641.66 54.17 638.8 59.12 638.77 59.17 612.13 59.17 593.6 27.08 609.24 0 606.92 0 592.45 25.08 591.29 27.08 592.45 29.09 609.86 59.24 610.97 61.18 613.29 61.18 637.62 61.18 639.94 61.18 641.1 59.17 641.09 59.17 641.13 59.11 642.82 56.17 643.98 54.17 642.82 52.16 634.71 38.12"/><polygon class="cls-1" points="641.08 13.04 639.92 11.04 637.61 11.04 631.82 11.04 632.98 13.04 638.77 13.04 649.19 31.1 650.35 29.1 641.08 13.04"/><polygon class="cls-1" points="573.33 58.19 572.17 60.2 565.22 72.22 567.54 72.22 573.33 62.2 579.11 72.22 581.43 72.22 574.48 60.2 573.33 58.19"/><polygon class="cls-1" points="303.46 24.07 302.3 22.07 301.14 24.07 290.14 43.13 288.99 45.13 290.14 47.14 291.3 45.13 302.3 26.08 328.94 72.22 331.26 72.22 303.46 24.07"/><polygon class="cls-1" points="281.44 58.19 273.35 72.22 275.66 72.22 283.76 58.19 284.92 56.19 282.6 56.19 281.44 58.19"/><polygon class="cls-1" points="40.54 24.07 41.7 22.07 42.86 24.07 53.86 43.13 55.02 45.13 53.86 47.14 52.7 45.13 41.7 26.08 15.06 72.22 12.74 72.22 40.54 24.07"/><polygon class="cls-1" points="62.56 58.19 70.66 72.22 68.34 72.22 60.24 58.19 59.09 56.19 61.4 56.19 62.56 58.19"/><polygon class="cls-1" points="257.13 34.1 246.13 15.05 244.97 13.04 244.98 13.04 244.97 13.04 243.81 11.03 241.49 11.03 219.48 11.03 217.17 11.03 218.32 13.04 221.22 18.05 223.54 18.05 220.64 13.04 242.65 13.04 243.82 15.05 244.97 17.06 255.97 36.1 244.96 55.16 243.81 57.17 242.64 59.18 220.65 59.18 232.81 38.13 233.97 36.12 232.81 34.11 228.75 27.08 226.43 27.08 231.65 36.12 218.34 59.18 217.18 61.19 219.49 61.19 241.49 61.19 243.8 61.19 244.96 59.18 244.97 59.18 244.96 59.18 246.12 57.17 257.13 38.11 258.29 36.1 257.13 34.1"/><polygon class="cls-1" points="167.94 24.07 166.78 22.06 166.78 22.07 166.78 22.07 166.78 22.06 165.63 24.07 165.37 24.52 165.37 24.52 154.63 43.13 153.47 45.13 154.63 47.14 155.78 45.13 166.78 26.08 176.1 42.23 176.1 42.22 177.78 45.13 178.94 47.13 180.1 45.13 178.94 43.12 167.94 24.07"/><polygon class="cls-1" points="187.64 58.19 186.48 56.18 184.17 56.18 185.33 58.19 193.43 72.22 195.74 72.22 187.64 58.19"/><polygon class="cls-1" points="145.93 58.2 137.83 72.22 140.14 72.22 148.24 58.2 149.4 56.19 147.09 56.19 145.93 58.2"/><polygon class="cls-1" points="99.03 45.14 93.82 54.17 104.24 54.17 99.03 45.14"/><polygon class="cls-1" points="116.41 43.13 114.67 40.13 113.52 38.12 111.2 38.12 82.24 38.12 70.65 18.05 81.08 0 78.76 0 69.5 16.05 68.34 18.05 69.5 20.06 79.92 38.12 81.08 40.13 83.4 40.13 112.36 40.13 115.25 45.14 107.14 59.18 94.4 59.18 92.08 59.18 78.19 59.18 79.35 61.19 93.24 61.19 95.56 61.19 105.99 61.19 108.3 61.19 109.46 59.18 116.41 47.15 117.57 45.14 116.41 43.13"/><polygon class="cls-1" points="110.05 0 104.84 9.03 107.15 9.03 112.36 0 110.05 0"/></g></g></svg>